<?xml version="1.0" encoding="UTF-8"?>
<svg version="1.1" xmlns="http://www.w3.org/2000/svg" width="100" height="100">
<path d="M0 0 C0.391875 1.2375 0.78375 2.475 1.1875 3.75 C2.93520771 8.45216599 5.51848576 10.75924288 10 13 C14.98066973 13.54644038 18.8958307 13.54204675 23.4375 11.3125 C27.09037617 8.01600199 29.10177224 4.85042988 30 0 C35.77527932 0.48943045 37.75804911 0.85482947 43 4 C43 12.91 43 21.82 43 31 C24.52 31 6.04 31 -13 31 C-13 22.09 -13 13.18 -13 4 C-8.01946906 1.01168143 -5.5989579 -0.15132319 0 0 Z M28 20 C28 21.32 28 22.64 28 24 C28.99 23.67 29.98 23.34 31 23 C30.67 22.01 30.34 21.02 30 20 C29.34 20 28.68 20 28 20 Z M34 20 C34 21.32 34 22.64 34 24 C34.99 23.67 35.98 23.34 37 23 C36.67 22.01 36.34 21.02 36 20 C35.34 20 34.68 20 34 20 Z " fill="#000000" transform="translate(35,67)"/>
<path d="M0 0 C0 8.58 0 17.16 0 26 C-3.96 26.33 -7.92 26.66 -12 27 C-12.020625 28.44375 -12.04125 29.8875 -12.0625 31.375 C-12.07410156 32.18710937 -12.08570313 32.99921875 -12.09765625 33.8359375 C-12.14466334 36.04937142 -12.14466334 36.04937142 -11 38 C-8.42048126 38.69093896 -8.42048126 38.69093896 -5.4375 39.125 C-3.643125 39.41375 -1.84875 39.7025 0 40 C0 45.94 0 51.88 0 58 C-7.90171897 56.871183 -11.42520741 55.21084292 -16.3125 49.125 C-18.69183935 45.80759213 -19.79226625 43.15467491 -20 39 C-20.99 38.67 -21.98 38.34 -23 38 C-24.23184766 35.53630468 -24.16732342 33.8105499 -24.1875 31.0625 C-24.20167969 30.18722656 -24.21585938 29.31195313 -24.23046875 28.41015625 C-24 26 -24 26 -22 23 C-21.54447264 21.28066196 -21.13221262 19.54960736 -20.75 17.8125 C-19.05515715 11.43786717 -16.53234975 6.44494012 -11.0078125 2.62109375 C-6.88706963 0.38967261 -4.91813553 0 0 0 Z " fill="#000000" transform="translate(48,4)"/>
<path d="M0 0 C8.23562975 1.02945372 12.19738086 2.28610231 17.3203125 8.63671875 C19.76449122 12.52024717 20.73782974 16.49018992 21.5078125 20.984375 C21.95072947 23.29604333 21.95072947 23.29604333 24 26 C24.265625 28.375 24.265625 28.375 24.25 31 C24.25515625 31.86625 24.2603125 32.7325 24.265625 33.625 C24 36 24 36 22 39 C21.34 39 20.68 39 20 39 C19.814375 40.155 19.62875 41.31 19.4375 42.5 C17.80423238 49.02148702 13.42735474 53.44649296 7.875 57 C5 58 5 58 0 58 C0 52.06 0 46.12 0 40 C2.83203125 39.54427083 5.6640625 39.08854167 8.49609375 38.6328125 C9.32238281 38.42398438 10.14867187 38.21515625 11 38 C12.20272819 35.59454362 12.10071472 34.05003047 12.0625 31.375 C12.041875 29.93125 12.02125 28.4875 12 27 C8.04 26.67 4.08 26.34 0 26 C0 17.42 0 8.84 0 0 Z " fill="#000000" transform="translate(52,4)"/>
<path d="M0 0 C0.680625 0.16242187 1.36125 0.32484375 2.0625 0.4921875 C5.42276997 1.07308523 8.59050215 1.13234806 12 1.125 C13.19625 1.12757812 14.3925 1.13015625 15.625 1.1328125 C18.55327693 1.01757938 21.15786976 0.67823563 24 0 C24.66964286 7.76785714 24.66964286 7.76785714 21.625 11.4375 C17.62998181 15.33739871 14.96998034 15.39074518 9.55078125 15.359375 C5.44131496 14.78039966 3.78650423 13.00085071 1 10 C-0.60725635 6.78548731 -0.05748185 3.56387464 0 0 Z " fill="#000000" transform="translate(38,63)"/>
<path d="M0 0 C0.66 0.33 1.32 0.66 2 1 C1.67 8.59 1.34 16.18 1 24 C-2.96 24 -6.92 24 -11 24 C-11.61952994 11.43730947 -11.61952994 11.43730947 -9.4375 6.375 C-6.43095653 3.44554739 -3.81463317 1.76603387 0 0 Z " fill="#000000" transform="translate(17,74)"/>
<path d="M0 0 C5.29419077 1.76473026 8.98093314 3.00621121 12.1328125 7.6796875 C13.34645537 10.9270022 13.18894606 13.79691279 13.125 17.25 C13.10695313 18.51328125 13.08890625 19.7765625 13.0703125 21.078125 C13.04710938 22.04234375 13.02390625 23.0065625 13 24 C9.04 24 5.08 24 1 24 C0.67 16.08 0.34 8.16 0 0 Z " fill="#000000" transform="translate(81,74)"/>
</svg>
